# xmcd
#
# Track frame offsets:
#	150
#	16012
#	31242
#	48605
#	62272
#	75945
#	92015
#	107200
#	121112
#	138065
#	155362
#	171227
#	186460
#	203822
#	217490
#	231162
#	247234
#	262417
#	276332
#	293285
#
# Disc length: 4140 seconds
#
# Revision: 1
# Processed by: cddbd v1.4PL0 Copyright (c) Steve Scherf et al.
# Submitted via: audiograbber 1.82.02
#
DISCID=1e102a14
DTITLE=Various Artist - Top Hits Monthly - 0104-C
DYEAR=1900
DGENRE=
TTITLE0=Martina McBride - It's My Time
TTITLE1=The Warren Brothers - Move On
TTITLE2=Tim Rushlow - She Misses Him
TTITLE3=Tricky Pony - Pour Me
TTITLE4=Dwight Yoakam - What Do You Know About Love
TTITLE5=Faith Hill - If My Heart Had Wings
TTITLE6=Patty Loveless - The Last Thing On My Mind
TTITLE7=Gary Allan - Right Where I Need To Be
TTITLE8=Sawyer Brown - Lookin' For Love
TTITLE9=Mindy McCready - Scream
TTITLE10=Martina McBride - It's My Time
TTITLE11=The Warren Brothers - Move On
TTITLE12=Tim Rushlow - She Misses Him
TTITLE13=Tricky Pony - Pour Me
TTITLE14=Dwight Yoakam - What Do You Know About Love
TTITLE15=Faith Hill - If My Heart Had Wings
TTITLE16=Patty Loveless - The Last Thing On My Mind
TTITLE17=Gary Allan - Right Where I Need To Be
TTITLE18=Sawyer Brown - Lookin' For Love
TTITLE19=Mindy McCready - Scream
EXTD=
EXTT0=
EXTT1=
EXTT2=
EXTT3=
EXTT4=
EXTT5=
EXTT6=
EXTT7=
EXTT8=
EXTT9=
EXTT10=
EXTT11=
EXTT12=
EXTT13=
EXTT14=
EXTT15=
EXTT16=
EXTT17=
EXTT18=
EXTT19=
PLAYORDER=
